<?xml version="1.0" encoding="utf-8"?>
<!-- Generator: Adobe Illustrator 23.0.0, SVG Export Plug-In . SVG Version: 6.00 Build 0)  -->
<svg version="1.1" id="Warstwa_1" xmlns="http://www.w3.org/2000/svg" xmlns:xlink="http://www.w3.org/1999/xlink" x="0px" y="0px"
	 viewBox="0 0 80 80" style="enable-background:new 0 0 80 80;" xml:space="preserve">
<style type="text/css">
	.st0{fill:#1138F7;}
</style>
<path class="st0" d="M33.01,24.02c6.62,0,12.01-5.39,12.01-12.01S39.63,0,33.01,0C26.39,0,21,5.39,21,12.01S26.39,24.02,33.01,24.02
	z M33.01,6c3.31,0,6.01,2.7,6.01,6.01s-2.7,6.01-6.01,6.01S27,15.32,27,12.01S29.7,6,33.01,6z M15.64,30.85
	c0.19-0.5,0.59-0.67,0.81-0.72c0.22-0.06,0.66-0.1,1.05,0.27L33.83,45h18.91L65.6,22.55l-5.21-2.98L49.26,39.06H36.13L21.52,25.93
	c-1.76-1.58-4.19-2.19-6.49-1.63c-2.3,0.56-4.17,2.23-5,4.44l-4.2,11.22c-0.94,2.51-0.59,5.31,0.92,7.51C8.27,49.68,10.8,51,13.5,51
	h12.39c0.57,0,0.87,0.37,1,0.59c0.11,0.19,0.33,0.68,0.04,1.22L16.27,72h6.86l9.05-16.29c1.24-2.26,1.2-4.95-0.12-7.18
	C30.74,46.32,28.44,45,25.89,45H13.5c-0.75,0-1.42-0.34-1.83-0.94c-0.24-0.34-0.59-1.06-0.24-1.98L15.64,30.85z M0,54v6h14.64
	l3.35-6H0z M43.28,48l-3.33,6H66v-6H43.28z"/>
</svg>
