<?xml version="1.0" encoding="utf-8"?>
<!-- Generator: Adobe Illustrator 23.0.0, SVG Export Plug-In . SVG Version: 6.00 Build 0)  -->
<svg version="1.1" id="Warstwa_1" xmlns="http://www.w3.org/2000/svg" xmlns:xlink="http://www.w3.org/1999/xlink" x="0px" y="0px"
	 viewBox="0 0 80 80" style="enable-background:new 0 0 80 80;" xml:space="preserve">
<style type="text/css">
	.st0{fill:#1138F7;}
</style>
<path class="st0" d="M47.76,12.24C46.44,5.28,40.32,0,33,0H0v72h30v-6H6V6h27c4.98,0,9,4.02,9,9v3h3c4.98,0,9,4.02,9,9v3h6v-3
	C60,19.68,54.72,13.56,47.76,12.24z M54,39h-3v-3h-6v3h-3c-3.31,0-6,2.69-6,6v3.84c0,2.59,1.65,4.87,4.1,5.69L54,59.16V63H42v-3h-6
	v3c0,3.31,2.69,6,6,6h3v3h6v-3h3c3.31,0,6-2.69,6-6v-3.84c0-2.59-1.65-4.87-4.1-5.69L42,48.84V45h12v3h6v-3C60,41.69,57.31,39,54,39
	z M12,18v6h15v-6H12z M12,36h24v-6H12V36z"/>
</svg>
