<?xml version="1.0" encoding="utf-8"?>
<!-- Generator: Adobe Illustrator 23.0.0, SVG Export Plug-In . SVG Version: 6.00 Build 0)  -->
<svg version="1.1" id="Warstwa_1" xmlns="http://www.w3.org/2000/svg" xmlns:xlink="http://www.w3.org/1999/xlink" x="0px" y="0px"
	 viewBox="0 0 50 50" style="enable-background:new 0 0 50 50;" xml:space="preserve">
<style type="text/css">
	.st0{fill:#1A3DE8;}
</style>
<g>
	<path class="st0" d="M6.5,7c-3.31,0-6,2.69-6,6c0,3.31,2.69,6,6,6c3.31,0,6-2.69,6-6C12.49,9.69,9.8,7,6.5,7z M6.5,16
		c-1.65,0-3-1.34-3-3c0-1.65,1.34-3,3-3c1.65,0,3,1.34,3,3C9.49,14.65,8.15,16,6.5,16z M6.5,20.5C4.02,20.5,2,22.52,2,25v15h3V25
		c0-0.83,0.67-1.5,1.5-1.5C7.33,23.5,8,24.17,8,25v15h3V25C11,22.52,8.98,20.5,6.5,20.5z M30.5,19c3.31,0,6-2.69,6-6
		c0-3.31-2.69-6-6-6c-3.31,0-6,2.69-6,6C24.51,16.31,27.2,19,30.5,19z M30.5,10c1.65,0,3,1.34,3,3c0,1.65-1.34,3-3,3
		c-1.65,0-3-1.34-3-3C27.51,11.35,28.85,10,30.5,10z M30.5,20.5c-2.48,0-4.5,2.02-4.5,4.5v15h3V25c0-0.83,0.67-1.5,1.5-1.5
		c0.83,0,1.5,0.67,1.5,1.5v15h3V25C35,22.52,32.98,20.5,30.5,20.5z M18.5,13c-3.31,0-6,2.69-6,6c0,3.31,2.69,6,6,6
		c3.31,0,6-2.69,6-6C24.5,15.69,21.81,13,18.5,13z M18.5,21.99c-1.65,0-3-1.34-3-3c0-1.65,1.34-3,3-3c1.65,0,3,1.34,3,3
		C21.5,20.65,20.16,21.99,18.5,21.99z M18.5,26.5c-2.48,0-4.5,2.02-4.5,4.5v12h3V31c0-0.83,0.67-1.5,1.5-1.5
		c0.83,0,1.5,0.67,1.5,1.5v12h3V31C23,28.52,20.98,26.5,18.5,26.5z"/>
</g>
</svg>
