<?xml version="1.0" encoding="utf-8"?>
<!-- Generator: Adobe Illustrator 23.0.0, SVG Export Plug-In . SVG Version: 6.00 Build 0)  -->
<svg version="1.1" id="Warstwa_1" xmlns="http://www.w3.org/2000/svg" xmlns:xlink="http://www.w3.org/1999/xlink" x="0px" y="0px"
	 viewBox="0 0 50 50" style="enable-background:new 0 0 50 50;" xml:space="preserve">
<style type="text/css">
	.st0{fill:#1A3DE8;}
</style>
<path class="st0" d="M8.22,27.46H6.8c-3.33,0-6.04,2.71-6.04,6.04v2.96c0,3.33,2.71,6.04,6.04,6.04h1.42c3.33,0,6.04-2.71,6.04-6.04
	V33.5C14.26,30.17,11.55,27.46,8.22,27.46z M11.26,36.46c0,1.68-1.37,3.04-3.04,3.04H6.8c-1.68,0-3.04-1.37-3.04-3.04V33.5
	c0-1.68,1.37-3.04,3.04-3.04h1.42c1.68,0,3.04,1.37,3.04,3.04V36.46z M20.22,9.5H18.8c-3.33,0-6.04,2.69-6.04,6v4.54
	c0,3.34,2.65,5.96,6.04,5.96h1.42c3.39,0,6.04-2.62,6.04-5.96V15.5C26.26,12.19,23.55,9.5,20.22,9.5z M23.26,20.04
	c0,1.66-1.34,2.96-3.04,2.96H18.8c-1.71,0-3.04-1.3-3.04-2.96V15.5c0-1.68,1.34-3,3.04-3h1.42c1.71,0,3.04,1.32,3.04,3V20.04z
	 M18.76,32v3c1.11,0,2.12-0.31,3-0.81v8.31h3V29h-3C21.76,30.68,20.44,32,18.76,32z M3.76,24.5h3v-15h-3c0,1.68-1.32,3-3,3v3
	c1.11,0,2.12-0.31,3-0.81V24.5z"/>
</svg>
