<?xml version="1.0" encoding="utf-8"?>
<!-- Generator: Adobe Illustrator 23.0.0, SVG Export Plug-In . SVG Version: 6.00 Build 0)  -->
<svg version="1.1" id="Warstwa_1" xmlns="http://www.w3.org/2000/svg" xmlns:xlink="http://www.w3.org/1999/xlink" x="0px" y="0px"
	 viewBox="0 0 50 50" style="enable-background:new 0 0 50 50;" xml:space="preserve">
<style type="text/css">
	.st0{fill:#1A3DE8;}
</style>
<g>
	<g>
		<path class="st0" d="M29.48,21.64l-1.95-2.28l-9.68,8.3l-6.57-3.94l-1.54,2.57l8.43,5.06L29.48,21.64z M18,8.5
			c-6.16,0-11.72,3.06-15,8.04V10H0v12h12v-3H5c2.65-4.62,7.54-7.5,13-7.5c8.27,0,15,6.73,15,15s-6.73,15-15,15
			c-6.13,0-11.75-3.83-13.97-9.54l-2.79,1.09C3.9,39.9,10.64,44.5,18,44.5c9.93,0,18-8.07,18-18S27.93,8.5,18,8.5z"/>
	</g>
</g>
</svg>
