<?xml version="1.0" encoding="utf-8"?>
<!-- Generator: Adobe Illustrator 23.0.0, SVG Export Plug-In . SVG Version: 6.00 Build 0)  -->
<svg version="1.1" id="Warstwa_1" xmlns="http://www.w3.org/2000/svg" xmlns:xlink="http://www.w3.org/1999/xlink" x="0px" y="0px"
	 viewBox="0 0 392 138" style="enable-background:new 0 0 392 138;" xml:space="preserve">
<style type="text/css">
	.st0{fill:#3C3C3B;}
	.st1{fill:#E63D29;}
</style>
<g>
	<path class="st0" d="M216.3,43.5c0.1-0.4-0.1-0.8-0.5-0.9c-1.2-0.3-3.8-0.8-7.4-0.9c-9.7-0.2-13.7,6.2-13.7,13.5v39.3
		c0,0.3,0.3,0.6,0.6,0.6h7.2c0.3,0,0.6-0.3,0.6-0.6V56.2c-0.1-2.5,0.6-4.4,1.9-5.8c1.4-1.4,3.3-1.6,6-1.6l3.5,0.3
		c0.3,0,0.6-0.2,0.6-0.5L216.3,43.5L216.3,43.5z"/>
	<path class="st0" d="M246.7,41.5c-17.6,0-23.9,7.1-23.9,27.3c0,20,6.2,27.1,23.9,27.1c17.6,0,23.9-7.1,23.9-27.1
		C270.6,48.6,264.3,41.5,246.7,41.5 M246.7,89.2c-11.6,0-15.3-5-15.3-20.4c0-15.6,3.7-20.5,15.3-20.5c11.6,0,15.3,5,15.3,20.5
		C262,84.3,258.3,89.2,246.7,89.2"/>
	<path class="st0" d="M62.9,43.5v51.1c0,0.3,0.3,0.6,0.6,0.6h7.1c0.3,0,0.6-0.3,0.6-0.6V43.5c0-0.3-0.3-0.6-0.6-0.6h-7.1
		C63.1,42.9,62.9,43.1,62.9,43.5"/>
	<path class="st1" d="M382.1,116.2c-1.2,0-2.4-0.5-3.4-1.4L364,100l-14.8,14.8c-1.9,1.9-4.9,1.9-6.7,0c-1.9-1.9-1.9-4.9,0-6.7
		l18.1-18.1c0.9-0.9,2.1-1.4,3.4-1.4c1.3,0,2.5,0.5,3.4,1.4l18.1,18.1c1.9,1.9,1.9,4.9,0,6.7C384.6,115.7,383.4,116.2,382.1,116.2"
		/>
	<path class="st0" d="M177.3,88.3c-0.1-0.3-0.3-0.6-0.6-0.5c-5.1,1.2-10.2,1.2-13.6,1.2c-11.5,0-16.7-3.2-16.7-15.8V73H172
		c7.8,0,11.8-5.5,11.8-14.8c0-11.3-8.1-16.6-23.1-16.6c-18.4,0-23.3,7.1-23.3,26.4c0,21.6,4.5,27.9,24.2,27.9
		c4.1,0,10.5-0.4,16.2-1.8c0.3-0.1,0.6-0.4,0.5-0.7L177.3,88.3L177.3,88.3z M146.4,63.5c0.3-11.1,3.4-15.2,14.8-15.2
		c9.2,0,14,2.7,14.1,9.7c0,2.6-0.5,5.1-1.5,6.4c-1,1.4-2.6,2.1-4.6,2.1h-22.8V63.5L146.4,63.5z"/>
	<path class="st0" d="M11.6,48.9c0.1,0.3,0.3,0.5,0.6,0.5c3.1-0.5,8.9-0.9,13.1-0.9c11.5,0,14.9,3.3,14.9,15.9v0.1l-20.6,0
		C9.7,64.5,4,70,4,79.3c0,11.3,7,16.6,22,16.6c25.2,0,23.3-4.1,23.3-26.4c0-21.6-3.7-28-23.4-28c-5.5,0-11.4,0.8-14.9,1.7
		c-0.3,0.1-0.6,0.4-0.5,0.7L11.6,48.9L11.6,48.9z M40.3,73.9c0,15.8,1.7,15.3-14.9,15.3c-9.2,0-12.8-2.8-12.9-9.8
		c0-2.6,0.6-4.6,1.8-6.1c1.8-2.1,3.8-2.5,6.5-2.5h19.5V73.9L40.3,73.9z"/>
	<path class="st0" d="M71.3,31.8c0,0.9-0.7,1.6-1.6,1.6h-5.4c-0.9,0-1.6-0.7-1.6-1.6v-4.3c0-0.9,0.7-1.6,1.6-1.6h5.4
		c0.9,0,1.6,0.7,1.6,1.6V31.8L71.3,31.8z"/>
	<path class="st0" d="M124.7,95.9c1,0,1.9,0,3.1-0.1c0.3,0,0.6-0.3,0.6-0.6l0.6-5c0-0.3-0.3-0.6-0.6-0.6c-2.2-0.1-4.5-1-5.7-2.2
		c-1.8-1.8-1.9-4.3-1.9-6.7V26.4c0-0.3-0.2-0.7-0.6-0.6l-7.2,0c-0.4,0.1-0.6,0.3-0.6,0.6V82C112.5,90.6,117,95.9,124.7,95.9"/>
	<path class="st0" d="M310.6,42.9L310.6,42.9c0,0-14.4,0-14.4,0c-9.6,0-14.1,4.1-14.1,13v38.7c0,0.3,0.3,0.6,0.6,0.6h7.2
		c0.3,0,0.6-0.3,0.6-0.6V57.7c-0.1-2.5,0.6-4.4,1.9-5.8c1.4-1.4,3.5-2.2,6.1-2.2h9.6c2.7,0,4.8,0.7,6.2,2.2c1.3,1.4,2,3.3,1.9,5.9
		v36.8c0,0.3,0.3,0.6,0.6,0.6h7.2c0.3,0,0.6-0.3,0.6-0.6V55.8C324.7,47,320.2,42.9,310.6,42.9"/>
	<path class="st0" d="M98.8,95.9c1,0,1.9,0,3.1-0.1c0.3,0,0.6-0.3,0.6-0.6l0.6-5c0-0.3-0.3-0.6-0.6-0.6c-2.2-0.1-4.5-1-5.7-2.2
		C95.1,85.6,95,83,95,80.6V26.4c0-0.3-0.2-0.7-0.6-0.6l-7.2,0c-0.4,0.1-0.6,0.3-0.6,0.6V82C86.6,90.6,91.1,95.9,98.8,95.9"/>
	<path class="st0" d="M19.5,116.8h-2.6l-3.5,10.1c-0.2,0.5-0.4,1.1-0.6,1.6h-0.4c-0.1-0.6-0.3-1.1-0.5-1.6l-3.6-10.1H5.8l4.9,12.9
		c0.1,0.4,0.4,0.6,0.8,0.6h0.5l-0.2,0.6c-0.7,1.7-1.7,2.9-3.9,3.6l0.2,1.6c3.4-0.2,5-2.6,5.9-5L19.5,116.8L19.5,116.8z M28.8,116.5
		c-4.6,0-6.3,1.9-6.3,7.1c0,5.2,1.7,7.1,6.3,7.1c4.7,0,6.3-1.9,6.3-7.1C35.1,118.4,33.4,116.5,28.8,116.5L28.8,116.5z M28.8,118.4
		c2.9,0,3.9,1.2,3.9,5.1c0,3.9-1,5.1-3.9,5.1c-2.9,0-3.9-1.2-3.9-5.1C24.9,119.6,25.8,118.4,28.8,118.4L28.8,118.4z M51.3,116.8
		h-2.4v9.9c-2,1.3-3.3,1.9-4.7,1.9c-1.6,0-2.2-0.6-2.1-2.3v-9.5h-2.4v10.1c0,2.4,1.2,3.7,3.7,3.7c1.9,0,3.8-0.8,5.8-2.3l0.2,1.9h1.9
		V116.8L51.3,116.8z M64.9,116.5h-0.6c-1.8,0-3.8,0.9-5.8,2.5l-0.2-2.1h-1.8v13.5h2.4v-9.9c2.1-1.1,3.5-1.7,5-1.7h0.8L64.9,116.5
		L64.9,116.5z M87.5,110.9h-2.4v4.2c0,0.9,0,1.7,0.1,2.7c-1.5-0.9-3.1-1.2-4.8-1.2c-3.5,0-5.1,1.8-5.1,7c0,4.7,1.3,7.1,4.7,7.1
		c2.1,0,3.9-1,5.4-2.3l0.2,1.9h1.8V110.9L87.5,110.9z M85.2,126.7c-1.8,1.3-2.8,1.9-4.3,1.9c-2.2,0-3.1-1.1-3.1-5.1c0-4,0.9-5,3.2-5
		c1.4,0,2.6,0.3,4.1,0.7V126.7L85.2,126.7z M93.4,111c-0.5,0-0.7,0.3-0.7,0.7v1.6c0,0.5,0.2,0.7,0.7,0.7h1.1c0.5,0,0.7-0.2,0.7-0.7
		v-1.6c0-0.4-0.2-0.7-0.7-0.7H93.4L93.4,111z M95.1,130.3v-13.5h-2.3v13.5H95.1L95.1,130.3z M113,118.1l0.1-1.3h-4.2
		c-0.8-0.2-1.8-0.3-3.1-0.3c-4.4,0-5.8,1.3-5.8,4.3c0,1.7,0.5,2.9,1.7,3.5c-1.2,0.9-1.5,3.2-0.1,4.2c-1.6,0.8-2.2,1.6-2.2,3.3
		c0,3.1,1.6,4.1,6.5,4.1c4.8,0,6.4-1,6.4-4.2c0-2.2-0.9-3.4-3.4-3.8l-5.1-0.8c-1.5-0.2-1.6-1.5-0.9-2.3c0.7,0.2,1.7,0.3,2.8,0.3
		c4.3,0,5.8-1.3,5.8-4.3c0-1-0.2-1.9-0.6-2.5L113,118.1L113,118.1z M105.7,123.2c-2.7,0-3.6-0.7-3.6-2.5c0-1.8,0.9-2.5,3.6-2.5
		c2.7,0,3.6,0.7,3.6,2.5C109.3,122.5,108.4,123.2,105.7,123.2L105.7,123.2z M107.7,129.7c1.9,0.3,2.3,0.6,2.3,1.9
		c0,1.9-0.9,2.3-4.2,2.3c-3.3,0-4.2-0.4-4.2-2.3c0-1.2,0.4-1.8,1.4-2.6L107.7,129.7L107.7,129.7z M117.8,111c-0.5,0-0.7,0.3-0.7,0.7
		v1.6c0,0.5,0.2,0.7,0.7,0.7h1.1c0.5,0,0.7-0.2,0.7-0.7v-1.6c0-0.4-0.2-0.7-0.7-0.7H117.8L117.8,111z M119.5,130.3v-13.5h-2.3v13.5
		H119.5L119.5,130.3z M128.4,118.6h4.3v-1.9h-4.3v-4h-2.4v4l-2.4,0.1v1.7h2.4v8.2c0,2.4,1.2,3.7,3.5,3.7c0.7,0,2.2-0.1,3-0.4
		l-0.3-1.8h-2.1c-1.3,0-1.8-0.5-1.8-1.8V118.6L128.4,118.6z M136.9,118.8c2.1-0.2,4.4-0.4,5.8-0.4c2.1,0,2.7,0.7,2.7,2.3v1.2h-5.6
		c-2.4,0-3.7,1.2-3.7,3.3v1.5c0,2.4,1.6,3.8,4,3.8c2.5,0,4.5-1.4,5.6-2.5l0.3,2.2h1.9v-9.5c0-3.3-1.6-4.3-4.6-4.3
		c-2,0-4.7,0.3-6.5,0.6L136.9,118.8L136.9,118.8z M138.5,125.6c0-1.1,0.4-1.8,1.7-1.9h5.2v2.7c-1.6,1.4-3.5,2.1-4.9,2
		c-1.5,0-2.1-0.6-2.1-2V125.6L138.5,125.6z M155.3,110.9H153v16.2c0,2.2,1.3,3.4,3.3,3.4c0.7,0,1.9-0.1,2.5-0.4l-0.3-1.8h-1.3
		c-1.2,0-1.9-0.6-1.8-1.8V110.9L155.3,110.9z M189.6,116.8h-2.4l-2.8,10c-0.2,0.7-0.3,1.3-0.5,2h-0.4c-0.1-0.7-0.3-1.4-0.5-2
		l-2.2-9.2c-0.1-0.5-0.4-0.8-0.9-0.8h-2.1c-0.5,0-0.8,0.3-0.9,0.7l-2.2,9.2l-0.5,2h-0.4c-0.1-0.7-0.3-1.4-0.4-2l-2.8-10h-2.4
		l3.9,12.8c0.1,0.4,0.5,0.7,0.9,0.7h2.1c0.5,0,0.8-0.3,0.9-0.7l2.2-9.2l0.5-2.1h0.3c0.2,0.7,0.3,1.4,0.4,2.1l2.2,9.2
		c0.1,0.4,0.5,0.7,0.9,0.7h2.1c0.4,0,0.8-0.2,0.9-0.7L189.6,116.8L189.6,116.8z M194.3,111c-0.5,0-0.7,0.3-0.7,0.7v1.6
		c0,0.5,0.2,0.7,0.7,0.7h1.1c0.5,0,0.7-0.2,0.7-0.7v-1.6c0-0.4-0.2-0.7-0.7-0.7H194.3L194.3,111z M196,130.3v-13.5h-2.3v13.5H196
		L196,130.3z M203.3,116.8h-2v13.5h2.4v-9.7c2.2-1.3,3.6-2.1,5.2-2.1c1.4,0,1.9,0.6,1.9,2.4v9.5h2.4v-10.1c0-2.4-1.3-3.7-3.7-3.7
		c-2,0-4,0.9-6,2.5L203.3,116.8L203.3,116.8z M230.9,118.1l0.1-1.3h-4.2c-0.8-0.2-1.8-0.3-3.1-0.3c-4.4,0-5.8,1.3-5.8,4.3
		c0,1.7,0.5,2.9,1.7,3.5c-1.2,0.9-1.5,3.2-0.1,4.2c-1.6,0.8-2.2,1.6-2.2,3.3c0,3.1,1.6,4.1,6.5,4.1c4.8,0,6.4-1,6.4-4.2
		c0-2.2-0.9-3.4-3.4-3.8l-5-0.8c-1.5-0.2-1.6-1.5-0.9-2.3c0.8,0.2,1.7,0.3,2.8,0.3c4.3,0,5.8-1.3,5.8-4.3c0-1-0.2-1.9-0.6-2.5
		L230.9,118.1L230.9,118.1z M223.6,123.2c-2.7,0-3.6-0.7-3.6-2.5c0-1.8,0.9-2.5,3.6-2.5c2.7,0,3.6,0.7,3.6,2.5
		C227.3,122.5,226.4,123.2,223.6,123.2L223.6,123.2z M225.6,129.7c1.9,0.3,2.3,0.6,2.3,1.9c0,1.9-0.9,2.3-4.2,2.3
		c-3.3,0-4.2-0.4-4.2-2.3c0-1.2,0.4-1.8,1.4-2.6L225.6,129.7L225.6,129.7z M241.4,124.8c1.3,0.3,2.1,0.6,2.1,1.9
		c0,1.6-0.9,1.9-4,1.9c-1.7,0-3.3,0-4.7-0.1l-0.2,1.7c2.3,0.4,4.3,0.4,5.3,0.4c3.9,0,5.8-0.6,5.8-3.9c0-2.3-1-3.2-3.1-3.7l-3.9-0.9
		c-1.3-0.3-2-0.5-2-1.9c0-1.7,0.8-1.7,3.3-1.7c1.7,0,3.4,0.1,5.1,0.1l0.2-1.7c-1.7-0.2-3.9-0.4-5.7-0.4c-3.7-0.1-5.3,0.6-5.3,3.7
		c0,2.2,0.9,3.2,3,3.8L241.4,124.8L241.4,124.8z"/>
</g>
<g>
	<path class="st0" d="M142,8.6l0.2,2.8c0.9-1,2-1.8,3.3-2.3c1.3-0.6,2.6-0.9,3.8-0.9c2.1,0,3.6,0.8,4.5,2.3s1.4,3.8,1.4,6.9
		c0,3.3-0.5,5.6-1.6,7c-1,1.4-2.7,2-5,2c-2.3,0-4.4-0.6-6.4-1.8c0.1,0.8,0.1,2,0.1,3.5v5h-3V8.6H142z M142.6,13.4v9.2
		c2.4,0.7,4.3,1.1,5.5,1.1c1.6,0,2.7-0.4,3.3-1.3c0.6-0.9,0.9-2.6,0.9-5.1c0-2.4-0.3-4.1-0.9-5.1c-0.6-1-1.6-1.5-3-1.5
		c-0.9,0-1.8,0.2-2.7,0.6C144.9,11.8,143.8,12.5,142.6,13.4z"/>
	<path class="st0" d="M167.5,8.1c3,0,5.1,0.7,6.3,2.1c1.2,1.4,1.8,3.7,1.8,7c0,3.3-0.6,5.7-1.8,7c-1.2,1.4-3.3,2.1-6.3,2.1
		c-3,0-5.1-0.7-6.3-2.1c-1.2-1.4-1.8-3.7-1.8-7c0-3.3,0.6-5.7,1.8-7C162.4,8.8,164.5,8.1,167.5,8.1z M171.4,12.1
		c-0.7-0.9-2-1.4-3.9-1.4c-1.9,0-3.2,0.5-3.9,1.4c-0.7,0.9-1.1,2.6-1.1,5.2c0,2.5,0.4,4.2,1.1,5.2c0.7,0.9,2,1.4,3.9,1.4
		c1.9,0,3.2-0.5,3.9-1.4c0.7-0.9,1.1-2.6,1.1-5.2C172.5,14.7,172.1,13,171.4,12.1z"/>
	<path class="st0" d="M205.9,8.6L200.9,25c-0.1,0.6-0.5,0.9-1.2,0.9h-2.7c-0.3,0-0.5-0.1-0.8-0.3c-0.2-0.2-0.4-0.4-0.4-0.7
		l-2.8-11.8c-0.1-0.3-0.2-0.8-0.3-1.4c-0.1-0.6-0.2-1-0.3-1.3h-0.4l-0.6,2.7l-2.8,11.8c-0.2,0.6-0.6,1-1.2,1h-2.7
		c-0.6,0-1-0.3-1.2-0.9l-5.1-16.5h3.1l3.6,12.8c0.2,0.7,0.4,1.6,0.6,2.6h0.5l0.6-2.6l2.9-11.8c0.1-0.6,0.5-1,1.1-1h2.7
		c0.6,0,1,0.3,1.1,1l2.8,11.8c0,0.3,0.1,0.7,0.3,1.3c0.1,0.6,0.2,1,0.3,1.3h0.5c0-0.1,0.1-0.5,0.2-1.1c0.1-0.6,0.3-1.1,0.4-1.5
		l3.6-12.8H205.9z"/>
	<path class="st0" d="M219.9,18.7h-8.1c0.2,2,0.7,3.3,1.5,4c0.8,0.7,2.1,1,4,1c2,0,4-0.1,6-0.4l0.3,2c-1.5,0.6-3.8,1-6.7,1
		c-3,0-5.1-0.7-6.4-2.1c-1.3-1.4-1.9-3.7-1.9-7.1c0-3.3,0.6-5.7,1.8-7c1.2-1.3,3.3-2,6.1-2c2.6,0,4.5,0.5,5.7,1.4s1.8,2.4,1.8,4.3
		C224.1,17.1,222.7,18.7,219.9,18.7z M211.8,16.4h7.3c1.3,0,1.9-0.9,1.9-2.6c0-1.1-0.4-1.9-1-2.4c-0.6-0.5-1.7-0.7-3.3-0.7
		c-1.8,0-3.1,0.4-3.8,1.2C212.2,12.7,211.8,14.2,211.8,16.4z"/>
	<path class="st0" d="M239.4,8.1l-0.4,2.8h-1c-0.9,0-1.8,0.2-2.7,0.5c-0.9,0.3-2.2,0.9-3.8,1.7v12.7h-3V8.6h2.3l0.3,2.7
		c2.7-2.1,5.1-3.2,7.4-3.2H239.4z"/>
	<path class="st0" d="M252.8,18.7h-8.1c0.2,2,0.7,3.3,1.5,4c0.8,0.7,2.1,1,4,1c2,0,4-0.1,6-0.4l0.3,2c-1.5,0.6-3.8,1-6.7,1
		c-3,0-5.1-0.7-6.4-2.1c-1.3-1.4-1.9-3.7-1.9-7.1c0-3.3,0.6-5.7,1.8-7c1.2-1.3,3.3-2,6.1-2c2.6,0,4.5,0.5,5.7,1.4s1.8,2.4,1.8,4.3
		C257,17.1,255.6,18.7,252.8,18.7z M244.7,16.4h7.3c1.3,0,1.9-0.9,1.9-2.6c0-1.1-0.4-1.9-1-2.4c-0.6-0.5-1.7-0.7-3.3-0.7
		c-1.8,0-3.1,0.4-3.8,1.2C245.1,12.7,244.7,14.2,244.7,16.4z"/>
	<path class="st0" d="M276.3,1v24.9h-2.3l-0.3-2.5c-2.2,1.9-4.5,2.9-6.9,2.9c-2.1,0-3.7-0.8-4.6-2.3c-1-1.5-1.4-3.8-1.4-6.9
		c0-3.3,0.5-5.6,1.6-7c1-1.4,2.7-2,5-2c2.3,0,4.3,0.5,6.2,1.6c-0.1-1-0.1-2.2-0.1-3.4V1H276.3z M273.2,21.3v-9.6c-2.3-0.6-4-1-5.3-1
		c-1.5,0-2.6,0.4-3.2,1.3c-0.6,0.9-0.9,2.6-0.9,5.1s0.3,4.2,0.9,5.1c0.6,0.9,1.6,1.4,3.1,1.4c0.9,0,1.7-0.2,2.5-0.5
		C271,22.8,272,22.2,273.2,21.3z"/>
	<path class="st0" d="M292.7,1v6.5c0,1.7-0.1,2.9-0.3,3.8c2.1-2.1,4.3-3.2,6.7-3.2c2.2,0,3.7,0.7,4.7,2.1c1,1.4,1.5,3.7,1.5,6.9
		c0,3.1-0.6,5.4-1.7,6.9c-1.1,1.5-3.1,2.2-6,2.2c-3,0-5.6-0.4-8-1.2V1H292.7z M292.7,13.3v9.8c1.6,0.5,3.2,0.7,4.9,0.6
		c1.7,0,2.9-0.5,3.6-1.5c0.7-1,1-2.7,1.1-5.1c0-2.4-0.3-4.1-0.9-5s-1.7-1.4-3.3-1.4c-0.8,0-1.6,0.2-2.4,0.6
		C294.9,11.8,293.9,12.4,292.7,13.3z"/>
	<path class="st0" d="M325.2,8.6l-6.9,18.3c-1.5,4.1-4,6.2-7.6,6.4l-0.3-2c1.4-0.4,2.4-1,3.2-1.8c0.8-0.7,1.4-1.7,1.9-2.8l0.3-0.7
		h-0.7c-0.6,0-0.9-0.3-1.1-0.8l-6.3-16.5h3.2l4.6,12.9c0.3,1,0.5,1.7,0.6,2.1h0.5c0.2-0.5,0.4-1.2,0.7-2.1L322,8.6H325.2z"/>
</g>
</svg>
