<?xml version="1.0" encoding="utf-8"?>
<!-- Generator: Adobe Illustrator 23.0.0, SVG Export Plug-In . SVG Version: 6.00 Build 0)  -->
<svg version="1.1" id="Capa_1" xmlns="http://www.w3.org/2000/svg" xmlns:xlink="http://www.w3.org/1999/xlink" x="0px" y="0px"
	 viewBox="0 0 511.99 511.99" style="enable-background:new 0 0 511.99 511.99;" xml:space="preserve">
<style type="text/css">
	.st0{fill:#FE510A;}
	.st1{fill:#FFFFFF;}
</style>
<g>
	<ellipse class="st0" cx="255.99" cy="256" rx="236.28" ry="236.28"/>
	<path class="st0" d="M255.99,511.98c-65.59,0-131.17-24.96-181.11-74.87c-99.85-99.85-99.85-262.35,0-362.22l0,0
		c99.85-99.83,262.37-99.85,362.22,0c99.85,99.87,99.85,262.35,0,362.22C387.17,487.02,321.56,511.98,255.99,511.98z M102.94,102.94
		c-84.37,84.39-84.37,221.72,0,306.11c84.41,84.37,221.74,84.39,306.11,0s84.37-221.72,0-306.11
		C324.64,18.57,187.33,18.57,102.94,102.94L102.94,102.94z"/>
</g>
<g>
	<path class="st1" d="M187.12,344.68c-5.08,0-10.16-1.94-14.03-5.81c-7.76-7.76-7.76-20.3,0-28.05l140.26-140.26
		c7.76-7.76,20.3-7.76,28.05,0s7.76,20.29,0,28.05L201.14,338.87C197.25,342.73,192.19,344.68,187.12,344.68z"/>
	<path class="st1" d="M327.36,344.68c-5.08,0-10.16-1.94-14.03-5.81L173.07,198.61c-7.76-7.76-7.76-20.29,0-28.05
		s20.29-7.76,28.05,0l140.26,140.26c7.76,7.76,7.76,20.3,0,28.05C337.51,342.73,332.43,344.68,327.36,344.68z"/>
</g>
</svg>
