<?xml version="1.0" encoding="utf-8"?>
<!-- Generator: Adobe Illustrator 23.0.0, SVG Export Plug-In . SVG Version: 6.00 Build 0)  -->
<svg version="1.1" id="Capa_1" xmlns="http://www.w3.org/2000/svg" xmlns:xlink="http://www.w3.org/1999/xlink" x="0px" y="0px"
	 viewBox="0 0 512 512" style="enable-background:new 0 0 512 512;" xml:space="preserve">
<style type="text/css">
	.st0{fill:#1138F7;}
	.st1{fill:#FFFFFF;}
</style>
<g>
	<circle class="st0" cx="256" cy="256" r="236.17"/>
	<path class="st0" d="M256,512C114.85,512,0,397.17,0,256C0,114.85,114.85,0,256,0c141.17,0,256,114.85,256,256
		C512,397.17,397.17,512,256,512z M256,39.66C136.71,39.66,39.66,136.71,39.66,256S136.71,472.34,256,472.34
		S472.34,375.27,472.34,256C472.34,136.71,375.3,39.66,256,39.66z"/>
</g>
<path class="st1" d="M225.07,350.19c-5.31,0-10.39-2.12-14.14-5.93l-73.17-74.36c-7.67-7.81-7.57-20.35,0.24-28.04
	c7.81-7.65,20.37-7.57,28.04,0.24l58.46,59.41l120.94-133.2c7.4-8.11,19.93-8.68,28-1.35c8.11,7.36,8.7,19.89,1.35,28.02
	L239.74,343.71c-3.67,4.05-8.82,6.39-14.28,6.5C225.32,350.19,225.21,350.19,225.07,350.19z"/>
</svg>
