<?xml version="1.0" encoding="utf-8"?>
<!-- Generator: Adobe Illustrator 23.0.0, SVG Export Plug-In . SVG Version: 6.00 Build 0)  -->
<svg version="1.1" id="Warstwa_1" xmlns="http://www.w3.org/2000/svg" xmlns:xlink="http://www.w3.org/1999/xlink" x="0px" y="0px"
	 viewBox="0 0 50 24" style="enable-background:new 0 0 50 24;" xml:space="preserve">
<style type="text/css">
	.st0{fill:#FF5A2C;}
	.st1{fill:#E8EAEC;}
</style>
<g>
	<path class="st0" d="M45.58,17.03c-0.87,1.56-2.08,2.77-3.64,3.64s-3.2,1.39-5.02,1.39s-3.38-0.52-4.94-1.47
		c-1.56-0.87-2.77-2.08-3.64-3.64s-1.3-3.12-1.3-4.94s0.43-3.46,1.39-5.02s2.08-2.77,3.64-3.64s3.12-1.3,4.94-1.3
		s3.46,0.43,5.02,1.39s2.77,2.08,3.64,3.64c0.87,1.56,1.39,3.2,1.39,5.02S46.53,15.47,45.58,17.03z M43.24,9.84
		c0.17-0.09,0.17-0.26,0.17-0.43c0-0.17-0.09-0.35-0.17-0.43l-0.87-0.95c-0.17-0.17-0.26-0.17-0.43-0.17s-0.35,0.09-0.43,0.17
		l-6.06,6.06l-2.77-2.77c-0.17-0.17-0.26-0.17-0.43-0.17s-0.35,0.09-0.43,0.17l-0.87,0.95c-0.17,0.09-0.17,0.26-0.17,0.43
		c0,0.17,0.09,0.35,0.17,0.43l4.16,4.16c0.09,0.17,0.26,0.17,0.43,0.17s0.35-0.09,0.43-0.17L43.24,9.84z"/>
</g>
<g>
	<path class="st1" d="M11.1,2.1c1.81,0,3.45,0.43,5,1.38s2.76,2.07,3.62,3.62c0.86,1.55,1.38,3.19,1.38,5s-0.43,3.45-1.38,5
		s-2.07,2.76-3.62,3.62c-1.55,0.86-3.19,1.38-5,1.38s-3.45-0.43-5-1.38c-1.55-0.86-2.76-2.07-3.62-3.62c-0.86-1.55-1.38-3.19-1.38-5
		s0.43-3.45,1.38-5C3.34,5.55,4.55,4.34,6.1,3.48C7.65,2.62,9.29,2.1,11.1,2.1z"/>
</g>
</svg>
