<?xml version="1.0" encoding="utf-8"?>
<!-- Generator: Adobe Illustrator 23.0.0, SVG Export Plug-In . SVG Version: 6.00 Build 0)  -->
<svg version="1.1" id="Warstwa_1" xmlns="http://www.w3.org/2000/svg" xmlns:xlink="http://www.w3.org/1999/xlink" x="0px" y="0px"
	 viewBox="0 0 50 50" style="enable-background:new 0 0 50 50;" xml:space="preserve">
<style type="text/css">
	.st0{fill:#FF5A2C;}
</style>
<path class="st0" d="M40.31,10.87H9.81c-2.62,0-4.75,2.05-4.75,4.56v21.26c0,2.51,2.13,4.56,4.75,4.56h30.5
	c2.62,0,4.75-2.05,4.75-4.56V15.43C45.06,12.91,42.93,10.87,40.31,10.87z M40.31,37.22H9.81c-0.38,0-0.72-0.25-0.72-0.53V18.24
	l13.8,11.65c0.28,0.24,0.64,0.37,1.01,0.37l2.33,0c0.37,0,0.73-0.13,1.01-0.37l13.8-11.65v18.45C41.03,36.97,40.7,37.22,40.31,37.22
	z M25.06,26.26L11.64,14.89h26.84L25.06,26.26z"/>
</svg>
