<?xml version="1.0" encoding="utf-8"?>
<!-- Generator: Adobe Illustrator 23.0.0, SVG Export Plug-In . SVG Version: 6.00 Build 0)  -->
<svg version="1.1" id="Warstwa_1" xmlns="http://www.w3.org/2000/svg" xmlns:xlink="http://www.w3.org/1999/xlink" x="0px" y="0px"
	 viewBox="0 0 270 50" style="enable-background:new 0 0 270 50;" xml:space="preserve">
<style type="text/css">
	.st0{fill:#FFFFFF;}
	.st1{fill-rule:evenodd;clip-rule:evenodd;fill:url(#SVGID_1_);}
	.st2{fill-rule:evenodd;clip-rule:evenodd;fill:url(#SVGID_2_);}
	.st3{fill-rule:evenodd;clip-rule:evenodd;fill:url(#SVGID_3_);}
</style>
<g>
	<g>
		<path class="st0" d="M263.63,36.75l0.1,1.33H268c-0.02-0.43-0.05-0.93-0.08-1.5c-0.02-0.57-0.04-1.18-0.05-1.82
			c-0.02-0.6-0.03-1.2-0.03-1.81v-0.03V32.9v-0.03v-0.02v-2.75V12.1h-4.77v7.49c-1.8-1.78-6.28-1.71-8.37-0.5
			c-1.34,0.78-2.35,1.99-3.05,3.44c-0.71,1.46-1.06,3.25-1.07,5.36c0.01,2.63,0.46,4.58,1.71,6.91
			C254.31,38.57,260.46,39.6,263.63,36.75L263.63,36.75z M255.36,27.67c0-1.14,0.11-2.09,0.33-2.85c0.34-1.2,1.08-2.4,2.33-2.82
			c2.22-0.75,4.42,0.26,5.06,1.15v10.07c-1.15,1.7-4.49,1.57-6.05,0.22c-0.6-0.46-1.03-1.17-1.29-2.12
			C255.47,30.36,255.35,29.15,255.36,27.67L255.36,27.67z M110.69,18.68h-2.22v-1.81c0-1.12-0.32-3.29-0.96-4.03l-3.81,3.66v2.18
			h-4.52c0-3.71,0.62-4.14,2.81-4.4l1.44-3.64c-6.24-0.22-9.02,2.2-9.02,8.04h-3.67l1.46,4.01c0,0,2.21,0,2.22,0v15.4h4.77v-15.4
			c2.44,0,2.08,0,4.52,0v9.3c0.01,1.34,0.26,2.49,0.76,3.43c0.51,0.96,1.23,1.69,2.17,2.21c0.94,0.51,2.07,0.76,3.39,0.77
			c1.47,0,2.74-0.24,3.91-0.79L112.63,34c-0.55,0.27-1.1,0.39-1.73,0.39c-0.58,0-1.05-0.05-1.4-0.18c-0.36-0.13-0.62-0.34-0.78-0.65
			c-0.16-0.31-0.23-0.75-0.23-1.32v-9.56h3.67L110.69,18.68L110.69,18.68z M153.25,31.23c0,0.18,0,0.36-0.01,0.54
			c-0.02,0.18-0.05,0.36-0.11,0.55c-0.16,0.47-0.43,0.91-0.79,1.32c-0.36,0.41-0.81,0.73-1.35,0.98c-0.53,0.26-1.15,0.38-1.83,0.39
			c-0.54,0-1.03-0.1-1.46-0.3c-0.43-0.2-0.77-0.51-1.03-0.92c-0.25-0.41-0.38-0.94-0.39-1.58c0.01-0.73,0.21-1.35,0.59-1.83
			c0.38-0.47,0.91-0.85,1.56-1.12c0.66-0.27,1.4-0.45,2.23-0.55c0.84-0.1,1.7-0.15,2.6-0.14V31.23L153.25,31.23z M158.17,26.37
			c0.01-1.08-0.12-2.12-0.39-3.11c-0.27-0.98-0.71-1.87-1.33-2.64c-0.62-0.77-1.47-1.38-2.54-1.83c-1.07-0.44-2.39-0.68-3.99-0.69
			c-1.56,0.01-3.48,0.15-5.01,0.57l-1.56,4.29c1.53-0.91,3.95-1.37,5.71-1.37c0.88,0.01,1.59,0.12,2.13,0.36
			c0.54,0.23,0.95,0.52,1.23,0.87c0.28,0.35,0.46,0.72,0.57,1.11c0.09,0.39,0.14,0.75,0.13,1.08v0.32
			c-2.47-0.02-4.59,0.26-6.36,0.81c-1.77,0.55-3.12,1.37-4.06,2.47c-0.95,1.09-1.43,2.47-1.44,4.1c0,0.75,0.14,1.47,0.42,2.16
			c0.27,0.69,0.68,1.31,1.22,1.86c0.53,0.55,1.19,0.99,1.97,1.3c0.77,0.32,1.67,0.49,2.67,0.49c0.88,0,1.69-0.11,2.44-0.34
			c0.75-0.23,1.41-0.52,2-0.92c0.59-0.38,1.08-0.84,1.48-1.35h0.12l0.37,2.17h4.55c-0.12-0.62-0.2-1.33-0.25-2.14
			c-0.05-0.81-0.07-1.67-0.07-2.56V26.37L158.17,26.37z M137.87,18.68h5.05l-7.04,19.4h-4.78l-3.26-11.16l-3.3,11.16h-4.77
			l-4.44-12.25l-2.6-7.16l5.05,0.01L122,32.68l3.78-13.99h4.1l3.78,13.99L137.87,18.68L137.87,18.68z M215.29,12.1l-7.02,10.86
			l-7.03-10.86h-5.29v25.98h4.77V19.84l7.55,10.85l7.54-10.85v18.25h4.77V12.1H215.29L215.29,12.1z M160.59,38.09h5V28.03
			c0-0.27,0.01-0.52,0.03-0.77c0.02-0.24,0.05-0.48,0.09-0.7c0.15-0.75,0.43-1.4,0.83-1.95c0.41-0.55,0.92-0.98,1.53-1.28
			c0.39-0.2,0.82-0.33,1.28-0.41c0.1-0.26,0.21-0.52,0.33-0.77c0.3-0.65,0.66-1.24,1.07-1.79c0.55-0.73,1.04-1.17,0.94-1.97
			c-0.2-0.04-0.39-0.07-0.56-0.09c-0.18-0.02-0.38-0.02-0.62-0.02c-0.73,0-1.44,0.15-2.16,0.47c-0.71,0.3-1.35,0.76-1.92,1.36
			c-0.58,0.62-1.04,1.37-1.37,2.27h-0.12l-0.2-3.7h-4.31c0.06,0.84,0.1,1.81,0.13,2.82c0.02,1.01,0.04,2.17,0.04,3.47V38.09
			L160.59,38.09z M180.45,34.35c0.94-0.01,1.82-0.08,2.64-0.23c0.82-0.14,1.56-0.34,2.26-0.56c0.69-0.23,1.31-0.48,1.87-0.75v3.82
			c-0.61,0.34-1.29,0.63-2.04,0.9c-0.76,0.27-1.58,0.47-2.49,0.63c-0.9,0.16-1.88,0.23-2.94,0.24c-0.8,0-1.62-0.08-2.47-0.23
			c-0.85-0.16-1.68-0.45-2.48-0.86c-0.79-0.41-1.52-0.98-2.16-1.72c-0.64-0.75-1.16-1.7-1.53-2.86c-0.38-1.16-0.58-2.57-0.59-4.23
			c0-1.48,0.16-2.84,0.48-4.1c0.32-1.25,0.83-2.35,1.53-3.29c0.7-0.94,1.62-1.67,2.74-2.2c1.14-0.52,2.51-0.79,4.12-0.8
			c1.24,0.01,2.34,0.18,3.31,0.52c0.96,0.34,1.79,0.81,2.49,1.42c0.7,0.6,1.28,1.3,1.74,2.11c0.45,0.8,0.79,1.66,1.01,2.6
			c0.22,0.93,0.32,1.88,0.32,2.87c0,0.44,0,0.85-0.01,1.25c-0.01,0.41-0.03,0.8-0.07,1.19H175.4c0.07,0.94,0.27,1.69,0.59,2.26
			c0.31,0.57,0.7,1.01,1.18,1.3c0.48,0.29,1,0.49,1.56,0.59C179.29,34.31,179.87,34.36,180.45,34.35L180.45,34.35z M179.38,21.96
			c-0.78-0.01-1.45,0.15-2.02,0.48c-0.55,0.32-1,0.84-1.32,1.55c-0.33,0.72-0.54,1.65-0.64,2.81h8c-0.06-0.62-0.18-1.22-0.37-1.8
			c-0.18-0.58-0.44-1.09-0.77-1.55c-0.33-0.45-0.73-0.81-1.2-1.08C180.57,22.09,180.02,21.97,179.38,21.96L179.38,21.96z
			 M81.89,18.11c2.03,0.01,3.73,0.4,5.12,1.17c1.39,0.78,2.45,1.92,3.18,3.43c0.72,1.51,1.08,3.36,1.09,5.55
			c-0.01,2.19-0.37,4.04-1.09,5.54c-0.72,1.51-1.78,2.65-3.18,3.43c-1.4,0.77-3.1,1.16-5.12,1.17c-2.02-0.01-3.72-0.4-5.12-1.17
			c-1.4-0.79-2.45-1.93-3.18-3.43c-0.72-1.51-1.08-3.35-1.09-5.54c0.01-2.19,0.37-4.04,1.09-5.55c0.73-1.51,1.78-2.65,3.18-3.43
			C78.17,18.5,79.87,18.11,81.89,18.11L81.89,18.11z M81.89,34.49c0.71,0.01,1.35-0.07,1.92-0.24c0.57-0.16,1.05-0.48,1.46-0.92
			c0.4-0.45,0.71-1.08,0.92-1.9c0.22-0.82,0.32-1.87,0.32-3.17c0-1.3-0.1-2.36-0.32-3.18c-0.21-0.82-0.52-1.45-0.92-1.9
			c-0.41-0.45-0.89-0.76-1.46-0.92c-0.57-0.17-1.21-0.25-1.92-0.24c-0.71-0.01-1.35,0.07-1.91,0.24c-0.57,0.16-1.05,0.48-1.46,0.92
			c-0.4,0.44-0.71,1.08-0.92,1.9c-0.21,0.82-0.32,1.88-0.32,3.18c0,1.3,0.11,2.35,0.32,3.17c0.21,0.83,0.52,1.45,0.92,1.9
			c0.41,0.45,0.89,0.76,1.46,0.92C80.54,34.42,81.18,34.5,81.89,34.49L81.89,34.49z M57.46,19.26c0.01-0.58,0.17-1.07,0.47-1.46
			c0.3-0.4,0.71-0.72,1.21-0.95c0.51-0.23,1.07-0.41,1.69-0.51c0.62-0.1,1.24-0.16,1.88-0.15c0.91,0.01,1.77,0.09,2.56,0.28
			c0.79,0.18,1.52,0.42,2.19,0.73c0.67,0.3,1.27,0.62,1.82,0.98v-4.55c-1.04-0.53-2.15-0.97-3.34-1.29
			c-1.19-0.33-2.45-0.49-3.79-0.5c-1.25,0-2.45,0.14-3.58,0.43c-1.13,0.3-2.13,0.75-3.02,1.36c-0.88,0.61-1.58,1.39-2.09,2.35
			c-0.51,0.95-0.77,2.08-0.78,3.4c0.01,1.13,0.21,2.08,0.58,2.86c0.38,0.78,0.89,1.44,1.53,1.95c0.64,0.53,1.36,0.96,2.16,1.3
			c0.8,0.34,1.62,0.64,2.47,0.9c0.85,0.25,1.67,0.5,2.48,0.74c0.8,0.24,1.52,0.52,2.15,0.84c0.64,0.31,1.15,0.71,1.53,1.19
			c0.37,0.47,0.57,1.06,0.57,1.77c0,0.6-0.16,1.09-0.47,1.48c-0.3,0.39-0.73,0.7-1.25,0.92c-0.52,0.22-1.1,0.37-1.76,0.46
			c-0.65,0.09-1.32,0.13-2.01,0.13c-1.09-0.01-2.09-0.12-3.02-0.34c-0.92-0.23-1.76-0.52-2.53-0.9c-0.77-0.37-1.47-0.79-2.09-1.25
			v4.75c0.71,0.43,1.51,0.8,2.38,1.15c0.88,0.33,1.84,0.59,2.89,0.77c1.06,0.19,2.21,0.29,3.47,0.3c1.24-0.01,2.42-0.18,3.52-0.52
			c1.09-0.34,2.07-0.82,2.91-1.44c0.84-0.63,1.51-1.38,1.99-2.26c0.48-0.87,0.73-1.85,0.74-2.93c-0.01-1.32-0.2-2.43-0.58-3.36
			c-0.38-0.92-0.89-1.69-1.53-2.31c-0.64-0.62-1.36-1.12-2.16-1.52c-0.8-0.4-1.63-0.73-2.47-0.99c-0.85-0.26-1.68-0.5-2.47-0.71
			c-0.8-0.22-1.53-0.45-2.16-0.7c-0.64-0.25-1.16-0.56-1.53-0.94C57.66,20.33,57.47,19.85,57.46,19.26L57.46,19.26z M225.76,10.64
			c-0.6,0.01-1.13,0.13-1.58,0.38c-0.45,0.25-0.8,0.59-1.05,1.01c-0.26,0.44-0.38,0.92-0.39,1.47c0,0.52,0.13,0.99,0.37,1.42
			c0.25,0.42,0.59,0.76,1.04,1.01c0.45,0.26,0.97,0.38,1.57,0.39c0.63-0.01,1.17-0.13,1.64-0.39c0.45-0.25,0.8-0.59,1.05-1.01
			c0.25-0.43,0.38-0.9,0.38-1.42c-0.02-0.55-0.15-1.04-0.4-1.47c-0.25-0.43-0.59-0.76-1.04-1.01
			C226.91,10.77,226.37,10.65,225.76,10.64L225.76,10.64z M228.18,38.09V19.66c-2.73,0.91-4.83,2.44-4.83,4.77v13.66H228.18
			L228.18,38.09z M230.94,38.09h4.84V26.57c0-0.29,0.02-0.57,0.06-0.84c0.04-0.28,0.1-0.52,0.18-0.73c0.18-0.5,0.45-0.98,0.82-1.41
			c0.36-0.44,0.8-0.79,1.33-1.05c0.52-0.27,1.13-0.42,1.8-0.42c0.92,0,1.65,0.23,2.22,0.66c0.56,0.42,0.97,1.01,1.23,1.75
			c0.25,0.74,0.38,1.58,0.37,2.53v11.04h4.83V26.48c0-1.54-0.22-2.85-0.62-3.92c-0.4-1.07-0.73-1.94-1.41-2.6
			c-0.67-0.66-1.44-1.13-2.28-1.43c-0.84-0.3-1.69-0.45-2.58-0.45c-0.83,0.01-1.59,0.11-2.28,0.32c-0.69,0.2-1.3,0.47-1.83,0.8
			c-0.54,0.33-1,0.69-1.38,1.08c-0.38,0.4-0.69,0.79-0.91,1.17h-0.13l-0.24-2.93c-1.16,0-2.52,0.15-4.16,0.48
			c0.03,0.7,0.06,1.44,0.09,2.21c0.02,0.97,0.05,2.01,0.05,3.13V38.09z"/>
		<g>
			<linearGradient id="SVGID_1_" gradientUnits="userSpaceOnUse" x1="18.771" y1="7.1463" x2="37.7422" y2="26.1174">
				<stop  offset="0.2" style="stop-color:#652400"/>
				<stop  offset="1" style="stop-color:#D10A11"/>
			</linearGradient>
			<path class="st1" d="M19.84,6.44c2.8-1.49,12.2,2.81,12.08,13.57c-0.03,3.15-1.24,7.23-2.16,9.41c-0.15,0.36-0.31,0.72-0.48,1.09
				c-0.07,0.15-0.14,0.3-0.21,0.45c-0.57,1.27-0.35,1.98,1.4,1.02c0.14-0.08,0.28-0.15,0.42-0.23c0.64-0.35,1.24-0.71,1.79-1.08
				c0.96-0.64,3.83-2.95,5.36-5.22c3.91-5.83,3.04-11.18-1.68-15.75c-2.35-2.27-5.2-3.96-8.31-4.93
				C22.51,3.75,20.37,4.84,19.84,6.44z"/>
			<linearGradient id="SVGID_2_" gradientUnits="userSpaceOnUse" x1="26.9305" y1="44.2458" x2="11.6116" y2="6.3302">
				<stop  offset="0.05" style="stop-color:#E74E0F"/>
				<stop  offset="0.95" style="stop-color:#FAB900"/>
			</linearGradient>
			<path class="st2" d="M15.77,25.03c5,1.97,11.7,3.19,16.31,5.35c0.5,0.24,0.98,0.48,1.44,0.74c2.58,1.5,4.17,3.43,3.84,6.23
				c-0.06,0.54-0.2,1.11-0.41,1.71c1.41-1.49,2.6-3.17,3.51-4.99c0.04-0.08,0.08-0.16,0.12-0.24c1.17-2.96-0.17-5.78-2.68-8.53
				c-1.27-1.39-2.83-2.76-4.5-4.12c-4.26-3.45-9.29-6.84-12.23-10.32c-0.9-1.06-1.79-2.96-1.31-4.42c0.52-1.6,2.67-2.69,8.2-1.67
				c-3.16-0.99-6.59-1.23-10.02-0.59c-0.7,0.13-1.4,0.3-2.09,0.51c-2.4,0.71-4.58,1.82-6.48,3.23c-2.1,1.9-2.87,4.11-2.73,6.3
				c0.29,4.46,4.34,8.88,8.64,10.65C15.49,24.92,15.63,24.98,15.77,25.03L15.77,25.03z M10.73,26.64c4.66,3.58,9.02,4.16,12.64,6.83
				c3.4,2.51,4.75,7.26,2.02,11.25c-0.53,0.46-1.24,0.67-2.23,0.76c-0.65,0.04-1.3,0.05-1.94,0.03h-0.01l-0.01,0h0h-0.01h-0.01
				c-8.74-0.28-16.7-6.08-19.31-14.92c-2.2-7.43-0.06-15.12,4.95-20.35C3.3,17.62,7.88,24.46,10.73,26.64z"/>
			<linearGradient id="SVGID_3_" gradientUnits="userSpaceOnUse" x1="8.0291" y1="33.1413" x2="18.5458" y2="25.7774">
				<stop  offset="0" style="stop-color:#D10A11"/>
				<stop  offset="0.85" style="stop-color:#EE7D00"/>
			</linearGradient>
			<path class="st3" d="M10.73,26.65c-2.85-2.19-7.43-9.03-3.93-16.4c-4.43,5.53-4.29,12.52-0.85,18.09
				c2.52,4.1,6.38,4.85,7.93,8.25c1.66,3.66-0.74,7.41,4.1,8.58c1.13,0.21,2.29,0.34,3.46,0.36c3.67,0.07,4.73-0.53,5.31-4.15
				c0.49-3.05-0.9-6.07-3.38-7.9C19.75,30.8,15.39,30.22,10.73,26.65z"/>
			<g>
				<defs>
					<path id="SVGID_13_" d="M29.76,29.42c0.81,0.3,1.59,0.61,2.32,0.95c0.21,0.1,0.41,0.19,0.6,0.29h0
						c0.96-0.64,3.83-2.95,5.36-5.22L37.9,25.3c-1.27-1.39-2.83-2.76-4.5-4.12c-0.48-0.39-0.98-0.78-1.47-1.17
						C31.88,23.16,30.68,27.24,29.76,29.42L29.76,29.42z"/>
				</defs>
				<linearGradient id="SVGID_4_" gradientUnits="userSpaceOnUse" x1="29.9074" y1="25.2593" x2="38.0342" y2="25.5431">
					<stop  offset="0.25" style="stop-color:#D10A11;stop-opacity:0"/>
					<stop  offset="1" style="stop-color:#D10A11;stop-opacity:0.5"/>
				</linearGradient>
				<use xlink:href="#SVGID_13_"  style="overflow:visible;fill-rule:evenodd;clip-rule:evenodd;fill:url(#SVGID_4_);"/>
				<clipPath id="SVGID_5_">
					<use xlink:href="#SVGID_13_"  style="overflow:visible;"/>
				</clipPath>
			</g>
			<g>
				<defs>
					<path id="SVGID_16_" d="M6.72,14.22c0.29,4.46,4.34,8.88,8.64,10.65l0.41,0.16c2.07,0.81,4.42,1.5,6.8,2.18
						c-8.94-4.8-7.63-17.44-2.72-20.77c0.52-1.6,2.67-2.69,8.2-1.67c-3.16-0.99-6.59-1.23-10.02-0.59c-0.7,0.13-1.4,0.3-2.09,0.51
						c-2.4,0.71-4.58,1.82-6.48,3.23C7.34,9.82,6.57,12.03,6.72,14.22z"/>
				</defs>
				<linearGradient id="SVGID_6_" gradientUnits="userSpaceOnUse" x1="27.7343" y1="4.4984" x2="11.5017" y2="22.5265">
					<stop  offset="0.08" style="stop-color:#D10A11;stop-opacity:0.5"/>
					<stop  offset="0.8" style="stop-color:#D10A11;stop-opacity:0"/>
				</linearGradient>
				<use xlink:href="#SVGID_16_"  style="overflow:visible;fill-rule:evenodd;clip-rule:evenodd;fill:url(#SVGID_6_);"/>
				<clipPath id="SVGID_7_">
					<use xlink:href="#SVGID_16_"  style="overflow:visible;"/>
				</clipPath>
			</g>
		</g>
	</g>
</g>
</svg>
