<?xml version="1.0" encoding="utf-8"?>
<!-- Generator: Adobe Illustrator 23.0.0, SVG Export Plug-In . SVG Version: 6.00 Build 0)  -->
<svg version="1.1" id="Warstwa_1" xmlns:serif="http://www.serif.com/"
	 xmlns="http://www.w3.org/2000/svg" xmlns:xlink="http://www.w3.org/1999/xlink" x="0px" y="0px" viewBox="0 0 50 50"
	 style="enable-background:new 0 0 50 50;" xml:space="preserve">
<style type="text/css">
	.st0{fill:#FF5A2C;}
</style>
<path class="st0" d="M6.86,20.98c-0.42,0.85-0.38,1.86,0.12,2.67c0.5,0.81,1.38,1.3,2.33,1.3h0c1.03,0,1.97-0.58,2.44-1.51
	c1-2,2.69-5.39,3.19-6.38c0.09-0.18,0.14-0.39,0.14-0.59c0-1.52,0-8.13,0-10.8c0-0.3-0.12-0.59-0.33-0.8
	c-0.21-0.21-0.5-0.33-0.8-0.33c-2.33,0-7.66,0-9.99,0c-0.3,0-0.59,0.12-0.8,0.33c-0.21,0.21-0.33,0.5-0.33,0.8c0,2.33,0,7.66,0,9.99
	c0,0.62,0.51,1.13,1.13,1.13c1.77,0,4.99,0,4.99,0S7.9,18.9,6.86,20.98z M23.19,20.98c-0.42,0.85-0.38,1.86,0.12,2.67
	c0.5,0.81,1.38,1.3,2.33,1.3h0c1.03,0,1.97-0.58,2.44-1.51c1-2,2.69-5.39,3.19-6.38c0.09-0.18,0.14-0.39,0.14-0.59
	c0-1.52,0-8.13,0-10.8c0-0.3-0.12-0.59-0.33-0.8c-0.21-0.21-0.5-0.33-0.8-0.33c-2.33,0-7.66,0-9.99,0c-0.3,0-0.59,0.12-0.8,0.33
	c-0.21,0.21-0.33,0.5-0.33,0.8c0,2.33,0,7.66,0,9.99c0,0.62,0.51,1.13,1.13,1.13c1.77,0,4.99,0,4.99,0S24.23,18.9,23.19,20.98z"/>
</svg>
