<?xml version="1.0" encoding="utf-8"?>
<!-- Generator: Adobe Illustrator 23.0.0, SVG Export Plug-In . SVG Version: 6.00 Build 0)  -->
<svg version="1.1" id="Warstwa_1" xmlns="http://www.w3.org/2000/svg" xmlns:xlink="http://www.w3.org/1999/xlink" x="0px" y="0px"
	 viewBox="0 0 14 20" style="enable-background:new 0 0 14 20;" xml:space="preserve">
<style type="text/css">
	.st0{fill:#FF5A2C;}
</style>
<path class="st0" d="M10,1.7c0.9,0,1.7,0.7,1.7,1.7v10c0,2.8-2.2,5-5,5s-5-2.2-5-5v-10c0-0.9,0.7-1.7,1.7-1.7C3.4,1.7,10,1.7,10,1.7
	z M13.3,3.3C13.3,1.5,11.8,0,10,0H3.3C1.5,0,0,1.5,0,3.3v10C0,17,3,20,6.7,20s6.7-3,6.7-6.7v-10H13.3z M7.5,4.2
	c0-0.5-0.4-0.8-0.8-0.8c-0.5,0-0.8,0.4-0.8,0.8v3.3c0,0.5,0.4,0.8,0.8,0.8c0.5,0,0.8-0.4,0.8-0.8V4.2z"/>
</svg>
